<?xml version="1.0" encoding="UTF-8"?>
<svg id="Layer_2" data-name="Layer 2" xmlns="http://www.w3.org/2000/svg" viewBox="0 0 512 366.51">
  <defs>
    <style>
      .cls-1 {
        fill: #ff5722;
      }
    </style>
  </defs>
  <g id="OBJECTS">
    <path class="cls-1" d="M511.6,215.65c-.52-5.55-1.25-11.07-2.46-16.49-3.14-14.01-8.13-27.39-14.42-40.28-5.58-11.43-12.34-22.14-19.68-32.52-8.2-11.61-17.39-22.35-27.52-32.31-1.04-1.02-2.26-1.87-3.3-2.9-5.68-5.56-11.85-10.57-18.15-15.37-10.01-7.62-20.66-14.27-31.84-20.06-14.23-7.37-28.63-14.24-44.62-17.03-1.45-.25-2.8.41-4.3-.39-21.12-11.23-43.14-20.26-66.11-27.01-16.19-4.76-32.67-8.02-49.41-9.95-6.14-.71-12.33-1.2-18.5-1.29-6.3-.09-12.6-.14-18.93.24-7.41.45-14.79.95-22.16,1.86-5.07.63-10.1,1.46-15.1,2.47-5.04,1.02-10.06,2.13-14.97,3.69-.29.09-1.03.7-1.33-.38-.52-1.9-2.08-2.48-4.27-2.04-5.32,1.08-10.17,3.41-15.07,5.63-8.68,3.93-16.81,8.78-23.9,15.17-7.63,6.87-14.07,14.76-19.54,23.46-8.37,13.31-13.32,27.67-13.17,43.5.05,5.16.43,10.39,1.37,15.46,1.98,10.74,5.39,21.09,9.89,31.06,6.54,14.48,15.85,27.08,26.7,38.55,9.68,10.23,19.74,20.07,31.06,28.57,10.3,7.73,21.06,14.69,32.4,20.7,16.72,8.87,34.17,16.06,52.31,21.52,12.99,3.91,26.16,7.03,39.57,9.1,5.6.87,11.15,2.06,16.75,2.9,5.19.78,10.4,1.51,15.63,1.89,8.13.6,16.26.38,24.4-.33,5.14-.45,10.23-1.02,15.33-1.78,10.6-1.59,20.75-4.61,30.53-8.94,11.46-5.08,22-11.65,31.19-20.19,7.09-6.59,12.81-14.34,17.84-22.61,5.66-9.29,9.6-19.26,10.78-30.08,1.08-9.98-.92-19.56-4.97-28.79-6.07-13.82-15.44-25.32-25.44-36.32-5.67-6.24-11.78-12.06-18.45-17.31-8.75-6.89-17.87-13.18-27.7-18.43-12.2-6.51-24.92-11.83-37.9-16.58-11.89-4.35-23.99-7.9-36.41-10.41-6.78-1.37-13.7-1.94-20.44-3.24-9.57-1.85-19.18-3.14-28.86-3.71-8.91-.53-17.86-.17-26.62,1.8-13.95,3.14-26.85,8.67-38.49,17.09-9.26,6.69-17.17,14.36-20.85,25.61-2.49,7.63-3.91,15.36-2.4,23.3,1.96,10.28,6.14,19.74,11.43,28.74,4.26,7.25,9.43,13.77,15.05,20.03,6.93,7.71,14.65,14.45,23.08,20.42,11.26,7.99,23.41,14.35,36.13,19.65,10.53,4.39,21.41,7.7,32.6,9.94,8.45,1.69,17.06,2.25,25.63,2.57,10.31.39,20.65.38,30.94-1.16,6.93-1.04,13.74-2.5,20.26-5,10.53-4.03,20.74-8.63,27.85-18.03,3.33-4.4,5.87-9.16,6.36-14.7.9-10.02-2.57-18.9-7.64-27.29-7.44-12.31-18.22-21.37-29.37-30.04-7.71-6-16.25-10.55-25.37-14.05-11.98-4.59-24.31-7.46-37.2-7.69-7.63-.14-15.25.11-22.82.94-6.22.68-12.22,2.39-18.08,4.56-4.1,1.52-8.11,3.2-11.87,5.48-8.42,5.11-9.95,10.96-8.44,19.2,2.45,13.39,9.96,23.75,20.37,32.2,6.03,4.89,12.84,8.34,19.87,11.53,12.13,5.52,24.75,6.89,37.74,4.71,9.36-1.57,17.6-5.97,24.71-12.14,4.63-4.02,7.66-9.26,7.24-15.66-.38-5.81-2.8-10.91-6.67-15.33-4.68-5.36-10.64-8.8-17-11.7-5.91-2.7-12.07-4.56-18.52-5.12-6.43-.55-12.69.63-18.67,3.18-7.88,3.36-13.44,8.29-12.46,17.82.56,5.47,2.58,10.25,7.16,13.48,7.16,5.04,15.25,7.03,23.94,6.52,1.15-.07,2.7.02,3.55-1.64-3.33-.23-6.68.25-8.41-3.24-.6-1.21-1.6-2.09-2.57-2.99-3.45-3.22-4.97-7.15-4.68-11.87.25-4.16,4.17-9.42,8.19-10.74,3.04-1,6.07-.83,9.23-.47,9.3,1.08,16.44,5.4,20.98,13.6,3.56,6.44,1.99,11.48-2.92,15.68-2.85,2.45-6.24,4.14-9.87,5.27-8.52,2.66-17.21,2.61-25.96,1.78-7.56-.72-14.75-2.69-21.24-6.68-4.68-2.88-9.38-5.84-10.51-11.94-1.1-5.94-1.18-11.71,2.48-16.92,3.44-4.89,8.18-8.15,13.58-10.47,8.14-3.5,16.67-4.46,25.5-4.05,8.45.4,16.63,1.96,24.62,4.53,11.81,3.8,22.37,9.54,29.1,20.51,3.33,5.43,5.11,11.38,3.1,17.73-1.37,4.32-4.22,7.89-7.24,11.2-6.03,6.59-13.48,11.11-21.81,14.18-8.86,3.26-17.98,4.6-27.47,4.08-6.41-.35-12.72-1.15-18.94-2.54-6.76-1.51-12.91-4.72-19.15-7.59-11.91-5.46-22.69-12.64-32.53-21.33-6.25-5.52-11.36-11.74-14.7-19.38-2.34-5.35-3.25-11.18-2-16.64,2.45-10.74,9.02-18.62,19.27-23.21,9.28-4.16,19.18-5.23,29.15-5.72,7.47-.36,14.91.38,22.35,1.21,7.76.86,15.4,2.26,22.99,4.02,17.96,4.17,35.3,10.11,51.96,18,11.67,5.52,22.14,12.83,31.95,21.21,7.76,6.63,13.88,14.29,17.61,23.84,3.42,8.74,4.68,17.74,3.43,27.04-1.3,9.72-6.77,16.76-14.38,22.56-7.27,5.54-15.64,8.88-24.04,11.96-14.33,5.25-29.39,6.97-44.54,7.52-7.48.27-14.99.28-22.5-.26-6.04-.43-12.07-1-18.02-1.97-8.72-1.41-17.34-3.42-25.79-6.08-16.46-5.17-32.51-11.34-47.58-19.84-19.71-11.11-36.56-25.72-51.49-42.62-6.71-7.6-12.26-15.97-16.67-25.09-2.96-6.12-4.95-12.58-5.47-19.36-.42-5.53-.04-11.07,1.24-16.53,2.31-9.84,6.34-18.87,13.11-26.42,9.17-10.22,20.9-16.5,33.75-20.75,10.23-3.39,20.85-4.99,31.53-6.31,7.2-.89,14.43-1.17,21.64-1.6,6.89-.41,13.78.29,20.67.73,6.75.43,13.41,1.4,20.11,2.23,9.81,1.22,19.48,3.19,29.06,5.45,11.41,2.69,22.72,5.88,33.84,9.64,16.38,5.54,32.6,11.5,47.77,19.91,13.48,7.47,25.5,16.96,36.69,27.52,6.57,6.2,12.49,13.01,18.18,20,2.27,2.79,4.76,5.46,6.48,8.66,5.25,9.77,9.56,19.92,11.94,30.82,1.9,8.67,3.55,17.39,2.35,26.31-.44,3.25-.45,6.58-1.72,9.73-3.63,9.01-8.22,17.53-13.28,25.8-2.69,4.39-5.27,8.97-9.33,12.19-3.06,2.43-6,4.98-8.5,7.9-1.85,2.16-4,3.76-6.28,5.29-12,8.03-25.24,13.36-38.93,17.59-11.16,3.45-22.34,7.06-34.18,7.04-9.26-.01-18.52.24-27.8-.28-9.38-.53-18.7-1.41-27.99-2.73-6.13-.87-12.22-1.94-18.25-3.26-14.65-3.19-29.13-7.08-43.38-11.8-23.94-7.94-47.57-16.57-69.36-29.54-7.01-4.18-13.95-8.48-20.03-13.95-9.08-8.18-17.43-17.07-25.5-26.26-8.22-9.35-15.88-19.1-22.78-29.46-5.82-8.74-11.09-17.79-15.49-27.33-4.08-8.85-7.26-18.07-10.58-27.22-3.69-10.18-8.07-20.08-12.16-30.09-1.63-3.98-3.41-7.9-5.13-11.84-.35-.8-.74-1.89-1.82-1.41-.83.37-.3,1.44-.3,2.19,0,.34.29.67.35,1.01,1.77,9.38,3.55,18.75,5.71,28.05.67,2.89,1.25,5.81,1.87,8.72-.51-.34-.74-.77-.94-1.2-4.42-9.41-8.83-18.83-13.26-28.24-.34-.73-.65-1.95-1.68-1.52-.92.39-.48,1.45-.28,2.33,1.14,5.12,2.18,10.26,3.29,15.38,2,9.18,3.75,18.42,6.63,27.39.85,2.65,1.76,5.29,2.64,7.93-2.67-4.61-5.62-9.01-7.74-13.89-6.13-14.1-9.46-29.04-13.36-43.81-.43-1.62-1.49-2.58-1.98-4.39-.98,3.42-.7,6.43-.82,9.41-.04,1.07.58,1.98.46,3.01C.47,78.23-.06,85.23,0,92.27c.08,7.46.47,14.9,1.26,22.33.71,6.68,1.74,13.28,3.11,19.85,4.05,19.39,11.15,37.59,20.7,54.93,11.11,20.18,25.5,37.83,41.27,54.44,6.57,6.92,13.88,13.02,21.44,18.84,12.31,9.49,25.17,18.17,38.6,26.01,2.36,1.38,4.73,2.74,7.09,4.1-15.52-4.63-29.99-11.8-45.21-18.08.45,1.74,1.58,2.16,2.48,2.84,11.38,8.53,22.58,17.31,34.97,24.41,9.69,5.55,19.45,10.95,29.86,15.06,19.34,7.64,39.23,13.28,59.74,16.83,9.61,1.67,19.26,3.14,28.97,3.34,14.59.3,29.2.62,43.78-1.12,7.34-.87,14.65-1.85,21.89-3.24,14.69-2.82,29.04-6.97,43.24-11.65,3.95-1.31,7.76-3.09,11.9-3.83.17-.41.46-.42.81-.27-.13.2-.27.4-.4.6-2.15,1.73-4.25,3.55-6.47,5.19-17.3,12.81-35.65,23.38-57.21,27.38-7.06,1.31-14.14,2.52-21.26,3.35-5.85.68-11.73,1.18-17.62,1.51-2.92.16-5.86.06-8.76.44-5.94.78-11.85.3-17.74-.34-3.15-.34-6.26-1.09-9.38-1.64-2.53-.45-5.06-.22-7.59-.67-2.73-.49-5.52-1.35-8.4-.92.1.87.78.89,1.17,1.03,9.81,3.47,19.88,6.17,30.08,8.05,8.45,1.56,17,2.73,25.56,3.75,7.35.87,14.7,1.43,22.08,1.65,10.4.3,20.75-.54,31.1-1.65,6.06-.65,12.12-1.33,18.1-2.37,10.54-1.83,20.92-4.41,31.13-7.65,13.09-4.15,25.6-9.64,37.64-16.23,9.3-5.09,18.63-10.08,27.39-16.09,9.28-6.38,17.51-13.91,24.78-22.44,5-5.86,9.22-12.31,12.76-19.16,4.34-8.39,7.86-17.09,9.93-26.35.99-4.43,1.43-8.97,2.45-13.37.98-4.19,1.58-8.42,1.88-12.66.46-6.43-.38-12.86-1.36-19.2-1.16-7.51-3.33-14.79-5.62-22.04-5.73-18.16-13.66-35.27-24.19-51.15-.19-.29-.31-.65.11-.96,1.28.57,1.75,1.9,2.65,2.84,7.39,7.71,13.57,16.33,19.17,25.38,7.36,11.89,14.48,23.92,19.36,37.1,5.04,13.61,7.88,27.63,7.65,42.21-.05,3.3-.24,6.57-.75,9.82-.12.74.05,1.37.65,1.66.59.28,1.05-.17,1.4-.72.83-1.33,1.76-2.55,2.33-4.08,2.49-6.77,2.93-13.87,3.35-20.93.25-4.22.13-8.48-.27-12.75ZM397.38,168.87c1.04.03,2.01-.29,1.83,1.09-.14,1.09-.24,2.39-1.61,2.38-1.23-.01-1.35-1.29-1.48-2.28-.16-1.22.67-1.26,1.26-1.2ZM395.23,162.24c.73-.03,1.34.26,1.3,1.07-.04.86-.57,1.63-1.44,1.64-.83,0-1.08-.89-1.15-1.58-.09-.82.49-1.14,1.29-1.13ZM160.08,84.91c-1.21,3.64-2.9,7.16-3.36,11.01-.52,4.36-1.12,8.66-.86,13.15.29,5.06,2.1,9.87,1.86,14.96-1.9-3.7-2.95-7.68-3.84-11.69-.76-3.41-.93-6.88-.95-10.39-.04-6.77,2.53-12.42,6.87-17.42.2-.13.4-.26.6-.39.16.36.11.64-.31.77ZM240.24,135.49c1.09,3.37,2.64,6.55,5.31,9.82-2.89-1.32-5.19-5.9-5.31-9.82ZM245.69,146.31c-.11-.01-.29-.19-.27-.25.03-.14.02-.46.34-.29.15.08.29.21.55.4-.3.07-.46.15-.62.13ZM248.33,136.71c-1.22-1.57-2.64-5.37-2.5-7.14.12-1.51,1.09-2.42,2.37-3.16,2.02-1.17,3.96-2.49,6.39-2.6-3.27,3.74-5.57,7.96-6.26,12.89ZM254.65,123.75c-.1-.15-.07-.27.12-.34.05-.02.12.04.18.06-.1.09-.2.19-.31.28ZM220.06,111.66c-4.34,4.53-7.25,9.88-8.95,16.3-1.59-12.67,2.02-14.67,8.57-16.6.15-.42.43-.46.8-.3-.14.2-.28.4-.42.6ZM313.55,175.68c3.95-3.34,7.6-6.96,10.5-11.28,5.43-8.1,5.9-9.7,6.26-21.19,2.66,3.84,3.01,8.07,2.47,12.28-.43,3.43-.85,7.09-3.26,9.86-4.25,4.89-9.36,8.6-15.6,10.63-.16.46-.49.45-.87.31.17-.2.33-.4.5-.61ZM312.36,176.43c.05,0,.1.09.15.14-.03.05-.06.1-.09.15-.08-.05-.15-.1-.23-.16.05-.05.11-.13.16-.13ZM253.51,199.47c4.64.87,9.33,1.26,14.02,1.69,6.01.56,12.05.67,18.06.37,12.64-.64,25-2.59,36.34-8.78,7.17-3.91,12.27-9.77,16.28-16.75,1.94-3.39,4.16-6.63,5.03-10.87,1.05,2.49.93,4.79,1.22,7.06.59,4.65-1.71,7.99-4.33,11.36-6.47,8.35-15.83,11.82-25.35,14.88-7.94,2.56-16.16,3.63-24.52,4.19-6.43.43-12.79.2-19.14-.25-8.41-.6-16.87-1.3-25.03-3.89,2.47.32,4.97.53,7.42.99ZM181.82,73.77c-4.66,3.22-8.59,7.18-12.25,11.45-.2.13-.4.27-.6.4-.16-.37-.11-.65.31-.79,3.3-6.48,8.59-11.08,14.53-14.97,6.09-3.98,12.85-6.19,20.05-7.11,2.12-.27,4.19-.97,6.96-.82-10.58,2.77-20.37,5.88-29,11.84ZM223.77,71.5c-1.17-.05-1.72-1.28-1.8-2.37-.07-.97.82-1.02,1.58-1.06,1-.05,1.53.37,1.46,1.61-.27.58-.35,1.86-1.25,1.81ZM231.96,63.5c-.57-.11-1.14-.61-1.18-1.39-.04-.66.38-.68.87-.66.58-.07.92.09.91.81,0,.57-.25,1.3-.6,1.24ZM321.09,79.12c.88,0,1.6.13,1.65,1.22-.04,1.07-.78,2.1-1.52,2.14-.88.05-1.35-1.2-1.49-2.07-.12-.76.46-1.29,1.36-1.29ZM307.84,81.79c-.98-.07-1.4-1.04-1.45-1.94-.05-1.15.83-1.18,1.69-1.17.73.01,1.28.22,1.38,1.06-.67.61-.3,2.15-1.62,2.05ZM309.24,93.33c19.37,5.88,37.66,13.78,52.5,28.13-16.07-12.07-34.12-20.41-52.5-28.13ZM362.62,122.74c-.1-.18-.22-.34-.27-.53-.01-.05.18-.16.28-.25.12.15.24.29.41.49-.17.12-.29.2-.42.29ZM273.76,243.59c7.28.11,14.56.12,21.81-.49,18.28-1.52,36.35-4.25,53.38-11.49,12.46-5.3,24.37-11.62,35.15-19.94,2.38-1.83,4.6-3.85,6.98-5.71-.57,1.73-1.78,2.97-2.93,4.2-15.28,16.43-34.44,26.17-55.78,31.97-6.33,1.72-12.88,2.52-19.43,3.31-7.54.92-15.08.97-22.61.68-5.46-.21-10.95-.91-16.33-2.05-.77-.16-1.61.22-2.67-.5,1.03,0,1.73,0,2.42,0ZM158.41,191.85c.76-.01.72.45.76.97.05.72-.43.96-.79,1.29-.75-.28-.97-.7-1.01-1.35-.05-.84.38-.9,1.04-.91ZM157.28,202.1c.5,0,.93.33.99.95.06.62-.35.9-.74,1.19-.81-.08-.78-.82-.97-1.27-.18-.43.29-.87.72-.87ZM150.08,192.74c.93.03,2.13-.07,1.93,1.16-.18,1.1-.49,2.78-1.86,2.79-1.55,0-1.81-1.76-1.95-2.92-.16-1.26,1.14-.95,1.89-1.03ZM91.8,133.41c-.18-.2-.35-.39-.53-.59-7.28-11.94-10.06-24.66-6.52-39.01.34,3.95.17,7.35.48,10.75.79,8.71,2.66,17.13,5.53,25.36.3.87.54,1.76.81,2.65.43.19.45.49.22.85ZM116.64,53.42c-.77-.08-1.01-.89-.98-1.49.02-.5.38-1.25,1.14-1.04.49.13,1.09.43,1.03,1-.28.76-.33,1.61-1.19,1.53ZM137.22,17.63c-14.05,6.61-26.17,15.84-36.48,27.37-11.26,12.59-19.61,26.89-24.25,43.23-.08.29-.09.56-.45.63-.02.4-.04.8-.06,1.35-.59-.61-.42-1.08-.16-1.56,1.68-12.88,6.01-24.79,12.94-35.78,4.84-7.68,11.03-14.13,18.08-19.76,9.41-7.51,20.07-12.7,31.45-16.48.3.96-.7.82-1.07,1ZM138.31,16.62c.35-.23.71-.38,1.53.13-.77-.09-1.11.5-1.53-.13ZM176.57,22.02c-.89-.46-1.84-.86-1.91-1.97-.05-.83.59-1.07,1.34-1.06,1.07.02,1.61.67,1.69,1.62.06.72-.63,1.04-1.12,1.4ZM183.31,17.95c-.63-.13-1.19-.69-1.17-1.55.01-.8.45-.98,1.13-.95.8.04,1.18.49,1.08,1.27-.08.62-.68,1.3-1.03,1.22ZM204.13,19.78c10.55-2.25,47.02,1.23,64.43,6.24-21.32-3.94-42.76-6.26-64.43-6.24ZM269.19,26.42c.58-.54,1.04-.25,1.74-.36-.68.67-1.15.4-1.74.36ZM360.89,46.73c.06-.1.11-.26.19-.28.31-.08.49.08.54.39-.28.39-.5.03-.74-.11ZM369.33,51.85c-2.19-1.6-4.68-2.77-7.02-4.18-.26-.16-.83-.25-.67-.81,3.47,1.48,6.93,2.96,10.44,4.46-.82,1.21-1.42,1.5-2.75.53ZM379.31,66.46c-.16.86-.34,1.88-1.34,2-1.26.14-1.5-1.1-1.64-1.93-.2-1.16.82-1.11,1.75-1.1.63-.03,1.46-.15,1.24,1.03ZM384.13,79.15c-1.35-.09-1.43-1.2-1.66-2.03-.26-.92.2-1.56,1.27-1.54.82.02,1.68.09,1.76,1.15.08,1.09-.34,1.96-1.36,2.41ZM387.11,69.42c-.62-.64-1.67-1.11-.93-2.08.34-.45,1.54-.39,1.8.02.5.82-.41,1.37-.87,2.05ZM28.72,135.62c-.93-.03-1.23-1.08-1.33-1.99-.1-.9.35-1.2,1.16-1.07.68.1,1.59-.08,1.49,1.22-.36.59-.28,1.88-1.32,1.84ZM32.05,146.26c-.68-.47-.99-1.2-1.09-1.97-.08-.7.38-1.06,1.08-1.05.83.01,1.08.49,1.13,1.28.06.9-.57,1.27-1.12,1.75ZM36.74,138.69c-1.23.07-1.49-1.41-1.78-2.4-.3-1.06.8-1.31,1.35-1.21.68.12,1.78-.13,2.04.95-.57.98-.4,2.6-1.61,2.67ZM41.32,184.13c-.07-.22-.15-.44-.22-.66-.25-.23-.5-.46-.75-.69,0-.19-.06-.51.02-.55.27-.13.26.15.32.31.22.23.44.46.65.68.07.22.14.44.22.66.62.23.96.63.87,1.32-.7,0-.81-.65-1.11-1.08ZM43.27,186.8c-.42-.65-1.15-.74-.81-1.56.52.22.96.5.81,1.56ZM45.02,189.12c-.36.02-.4-.28-.43-.53,0-.07.19-.16.29-.24.12.16.24.33.36.5-.08.11-.15.26-.22.27ZM47.73,192.73c-.46,0-.49-.43-.68-.7-.45-.57-.89-1.15-1.34-1.72-.1-.33-.2-.65-.3-.98.12-.01.35-.07.36-.04.1.25.16.52.23.78.68.41,1.35.83,1.32,1.78.39.09.61.33.58.74,0,.05-.11.13-.16.13ZM48.34,193.58c-.1-.19-.23-.37-.29-.58-.02-.05.17-.17.32-.3.09.2.21.38.24.57.01.09-.17.2-.26.3ZM62.83,210.34s.02-.13.03-.2c.12.1.23.2.35.3,0,0,0,0,0,0-.15.13-.29.1-.39-.1ZM63.36,211.1c-.12-.21-.46-.39-.13-.66.28,0,.41.15.45.41.51.26.95.58,1.07,1.37-.79-.06-1.03-.67-1.39-1.12ZM68.56,216.13c-.27.26-.5-.3-.74-.5-.17-.31-.95-.41-.44-.91.21-.21.61.19.74.54.33.21.87.45.44.87ZM143.92,251.54c.77.03,1.66-.27,1.53.99-.09.93-.09,2.03-1.27,2.13-1.37.12-1.5-1.32-1.71-2.12-.22-.82.72-1.09,1.45-1ZM140.92,244.47c1.19-.08,1.53.59,1.45,1.45-.01,1.16-.45,2.07-1.39,2.01-1.13-.08-1.5-1.28-1.66-2.22-.19-1.11.79-1.18,1.61-1.23ZM135.18,252.87c.4.49,1.63.14,1.38,1.22-.15.67-.29,1.72-1.21,1.71-.86,0-1.19-.93-1.37-1.66-.2-.85.54-1.04,1.2-1.27ZM304.94,311.74c-5.79.28-11.59.47-17.36.9-7.81.58-15.59.21-23.39.33-6.41.1-12.6-1.5-18.86-2.59-9.13-1.58-18.12-3.75-27.06-6.17-13.93-3.76-27.59-8.3-40.88-13.91-17.81-7.51-34.93-16.36-50.91-27.29-6.71-4.59-13.3-9.37-20.02-13.96-5.89-4.02-11.29-8.64-16.75-13.21-6.64-5.57-13-11.45-19.21-17.49-.48-.47-1.24-.81-1.24-2.2,2.33,2.04,4.37,3.82,6.39,5.6,7.45,6.55,15.14,12.79,23.03,18.8,5.04,3.85,9.71,8.18,14.8,11.97,9.16,6.82,18.7,13.03,28.68,18.58,8.65,4.8,17.55,9.08,26.57,13.09,17.99,7.99,36.44,14.67,55.67,19.12,7.38,1.71,14.78,3.27,22.27,4.29,4.97.67,10.01,1.02,15.02,1.5,10.2.97,20.4.9,30.6.73,6.7-.11,13.39-.77,20.07-1.61,4.71-.59,9.42-1.32,14.17-1.69-7.14,1.98-14.03,4.84-21.6,5.21ZM346.25,284.65c-8.05,2.2-16.21,4.03-24.46,5.27-5.89.89-11.84,1.46-17.8,1.93-8.29.65-16.59,1.08-24.88.74-7.44-.31-14.87-.87-22.3-1.6-13.3-1.31-26.27-4.12-39.1-7.68-5.31-1.47-10.73-2.72-15.72-5.2-.39-.06-.84.12-1.18-.29.49-.3.94-.32,1.36.1,6.91,1.6,13.75,3.44,20.73,4.74,5.88,1.1,11.76,2.2,17.7,2.93,5.53.68,11.04,1.56,16.58,2.16,4.34.47,8.74.45,13.08.97,5.28.63,10.57.4,15.84.54,6.15.17,12.32-.05,18.48-.49,4.22-.3,8.45-.59,12.66-1.02,5.19-.53,10.37-1.14,15.52-1.94,6.67-1.04,13.29-2.37,19.81-4.18.82-.23,1.76-.03,3.26-.03-3.42,1.61-6.56,2.21-9.58,3.04ZM363.85,292.96c-.15,1.01-.37,2.28-1.52,2.28-1.57,0-1.71-1.67-1.94-2.74-.27-1.27.96-1.15,1.94-1.16,1.12-.15,1.71.35,1.52,1.63ZM350.54,345.58c-.83.06-.88-.75-.88-1.38,0-.55-.09-1.18.83-1.15.64.02,1.11.1,1.09.84-.08.78-.17,1.63-1.04,1.7ZM357.04,339.69c-.23.9-.41,2.35-1.56,2.37-1.15.03-1.37-1.41-1.56-2.3-.16-.78.51-1.43,1.74-1.15.47.13,1.7-.17,1.38,1.07ZM400.96,67.2c-.59.17-.89-.26-1.21-.64-.14-.2-.27-.4-.41-.6.37-.18.65-.1.78.31.42.05.89.03.98.6.02.1-.07.31-.15.33ZM425.73,244.12c.12-.89.74-1.17,1.39-.92.44.17,1.42.16,1.21,1.08-.59.63-.37,1.97-1.36,1.85-.85-.11-1.38-.96-1.24-2.01ZM420.75,256.41c.99-.03,1.99-.02,1.84,1.1-.11.81-.33,2.04-1.56,1.99-1.05-.04-1.25-1.11-1.44-1.91-.23-.99.42-1.29,1.16-1.18ZM451.42,274.13c-1.87,4.32-4.66,8.08-7.37,11.85-4.33,6.02-9.16,11.69-14.54,16.81-10.6,10.07-21.82,19.34-34.96,26.02-1.12.57-2.32.99-3.66,1.2,2.11-1.68,4.16-3.44,6.33-5.03,3.77-2.76,7.18-5.95,10.68-9.03,3.89-3.43,8.25-6.22,12.13-9.65,5.73-5.06,11.45-10.1,16.66-15.72,5.03-5.42,9.75-11.1,14.42-16.82.38-.67.67-1.4,1.56-1.86-.13.99-.45,1.74-1.25,2.24ZM456.54,207.36c.98.03.96.83,1.05,1.6.22,1.85-.83,3.58-.38,5.49,1.54-.14,2.5-1.73,4.47-1.84-.87.94-1.53,1.65-2.33,2.51,2.13.27,4.13.52,6.14.77-2.71.89-5.46,1.27-8.57,1.21,1.35,2.04,2.56,3.86,3.76,5.67.42.14.48.41.3.78-.2-.14-.4-.27-.6-.41-1.2-1.3-2.39-2.59-3.79-4.11-1.19,2.68-1.03,5.37-2.61,7.56v-6.74c-1.09.78-1.84,1.46-2.71,1.87-.47.22-1.05,1.32-1.75.11-.55-.95-.48-1.52.53-2.13,1.08-.65,2.02-1.53,3.22-2.48-1.88-.4-3.49.08-5.04-.54-.62-.25-1.15-.47-1.14-1.06,0-.73.68-.79,1.29-.78,1.18.01,2.36,0,3.62,0-.38-1.49-1.48-2.39-2.45-3.36-.42-.42-.63-.93-.23-1.33.4-.4.92-.19,1.33.24.81.85,1.63,1.7,2.51,2.48.38.34.61,1.13,1.31.82.54-.24.39-.87.44-1.37.12-1.15.24-2.3.46-3.44.13-.65.2-1.55,1.16-1.52ZM448.31,199.38c.46.41,1.37.29,1.33,1.34-.03.75-.27,1.46-.93,1.54-.75.1-1.23-.53-1.31-1.34-.07-.71.07-1.3.91-1.55ZM454.96,134.33c-.02-.07.17-.18.26-.28.11.17.21.35.32.52-.12.1-.22.17-.32.25-.09-.16-.22-.32-.26-.5ZM401.48,67.23c30.1,18.57,55.68,41.87,74.7,72.01-22.39-26.6-48.11-49.76-74.7-72.01ZM476.6,140.66c-.28-.12-.48-.3-.44-.63.04-.3.17-.59.5-.34.19.14.29.45.33.71.02.1-.08.45-.4.27ZM476.87,141.17c.15-.13.31-.25.46-.38.78.93,1.52,1.87,1.64,3.25-.7-.95-1.4-1.91-2.1-2.86Z"/>
  </g>
</svg>