<?xml version="1.0" encoding="UTF-8"?>
<svg id="Layer_2" xmlns="http://www.w3.org/2000/svg" version="1.1" viewBox="0 0 512 512">
  <!-- Generator: Adobe Illustrator 30.0.0, SVG Export Plug-In . SVG Version: 2.1.1 Build 123)  -->
  <defs>
    <style>
      .st0 {
        fill: #ff5722;
        stroke: #09002a;
        stroke-miterlimit: 10;
        stroke-width: .8px;
      }

      .st1 {
        fill: #09002a;
      }
    </style>
  </defs>
  <g id="OBJECTS">
    <g>
      <rect class="st1" y="0" width="512" height="512" rx="32.7" ry="32.7"/>
      <path class="st0" d="M573.5,307.5c-.7-7-1.6-13.9-3.1-20.7-3.9-17.6-10.2-34.4-18.1-50.6-7-14.3-15.5-27.8-24.7-40.8-10.3-14.6-21.8-28.1-34.5-40.6-1.3-1.3-2.8-2.4-4.1-3.6-7.1-7-14.9-13.3-22.8-19.3-12.6-9.6-25.9-17.9-40-25.2-17.9-9.3-35.9-17.9-56-21.4-1.8-.3-3.5.5-5.4-.5-26.5-14.1-54.2-25.4-83-33.9-20.3-6-41-10.1-62-12.5-7.7-.9-15.5-1.5-23.2-1.6-7.9-.1-15.8-.2-23.8.3-9.3.6-18.6,1.2-27.8,2.3-6.4.8-12.7,1.8-18.9,3.1-6.3,1.3-12.6,2.7-18.8,4.6-.4.1-1.3.9-1.7-.5-.7-2.4-2.6-3.1-5.4-2.5-6.7,1.4-12.8,4.3-18.9,7.1-10.9,4.9-21.1,11-30,19.1-9.6,8.6-17.7,18.5-24.5,29.4-10.5,16.7-16.7,34.7-16.5,54.6,0,6.5.5,13,1.7,19.4,2.5,13.5,6.8,26.5,12.4,39,8.2,18.2,19.9,34,33.5,48.4,12.1,12.8,24.8,25.2,39,35.9,12.9,9.7,26.4,18.4,40.7,26,21,11.1,42.9,20.2,65.7,27,16.3,4.9,32.8,8.8,49.7,11.4,7,1.1,14,2.6,21,3.6,6.5,1,13.1,1.9,19.6,2.4,10.2.8,20.4.5,30.6-.4,6.4-.6,12.8-1.3,19.2-2.2,13.3-2,26-5.8,38.3-11.2,14.4-6.4,27.6-14.6,39.2-25.3,8.9-8.3,16.1-18,22.4-28.4,7.1-11.7,12.1-24.2,13.5-37.8,1.4-12.5-1.2-24.6-6.2-36.1-7.6-17.4-19.4-31.8-31.9-45.6-7.1-7.8-14.8-15.1-23.2-21.7-11-8.6-22.4-16.5-34.8-23.1-15.3-8.2-31.3-14.9-47.6-20.8-14.9-5.5-30.1-9.9-45.7-13.1-8.5-1.7-17.2-2.4-25.7-4.1-12-2.3-24.1-3.9-36.2-4.7-11.2-.7-22.4-.2-33.4,2.3-17.5,3.9-33.7,10.9-48.3,21.4-11.6,8.4-21.6,18-26.2,32.1-3.1,9.6-4.9,19.3-3,29.3,2.5,12.9,7.7,24.8,14.3,36.1,5.3,9.1,11.8,17.3,18.9,25.1,8.7,9.7,18.4,18.1,29,25.6,14.1,10,29.4,18,45.3,24.7,13.2,5.5,26.9,9.7,40.9,12.5,10.6,2.1,21.4,2.8,32.2,3.2,12.9.5,25.9.5,38.8-1.5,8.7-1.3,17.2-3.1,25.4-6.3,13.2-5.1,26-10.8,35-22.6,4.2-5.5,7.4-11.5,8-18.5,1.1-12.6-3.2-23.7-9.6-34.2-9.3-15.4-22.9-26.8-36.9-37.7-9.7-7.5-20.4-13.2-31.8-17.6-15-5.8-30.5-9.4-46.7-9.7-9.6-.2-19.1.1-28.7,1.2-7.8.8-15.3,3-22.7,5.7-5.2,1.9-10.2,4-14.9,6.9-10.6,6.4-12.5,13.8-10.6,24.1,3.1,16.8,12.5,29.8,25.6,40.4,7.6,6.1,16.1,10.5,24.9,14.5,15.2,6.9,31.1,8.6,47.4,5.9,11.7-2,22.1-7.5,31-15.2,5.8-5,9.6-11.6,9.1-19.7-.5-7.3-3.5-13.7-8.4-19.2-5.9-6.7-13.4-11-21.3-14.7-7.4-3.4-15.2-5.7-23.2-6.4s-15.9.8-23.4,4c-9.9,4.2-16.9,10.4-15.6,22.4.7,6.9,3.2,12.9,9,16.9,9,6.3,19.1,8.8,30.1,8.2,1.4,0,3.4,0,4.5-2.1-4.2-.3-8.4.3-10.6-4.1-.8-1.5-2-2.6-3.2-3.8-4.3-4-6.2-9-5.9-14.9.3-5.2,5.2-11.8,10.3-13.5,3.8-1.3,7.6-1,11.6-.6,11.7,1.3,20.6,6.8,26.3,17.1,4.5,8.1,2.5,14.4-3.7,19.7-3.6,3.1-7.8,5.2-12.4,6.6-10.7,3.3-21.6,3.3-32.6,2.2-9.5-.9-18.5-3.4-26.7-8.4-5.9-3.6-11.8-7.3-13.2-15-1.4-7.5-1.5-14.7,3.1-21.2,4.3-6.1,10.3-10.2,17.1-13.1,10.2-4.4,20.9-5.6,32-5.1,10.6.5,20.9,2.5,30.9,5.7,14.8,4.8,28.1,12,36.5,25.7,4.2,6.8,6.4,14.3,3.9,22.3-1.7,5.4-5.3,9.9-9.1,14.1-7.6,8.3-16.9,14-27.4,17.8-11.1,4.1-22.6,5.8-34.5,5.1-8-.4-16-1.5-23.8-3.2-8.5-1.9-16.2-5.9-24-9.5-14.9-6.9-28.5-15.9-40.8-26.8-7.8-6.9-14.3-14.7-18.5-24.3-2.9-6.7-4.1-14-2.5-20.9,3.1-13.5,11.3-23.4,24.2-29.1,11.7-5.2,24.1-6.6,36.6-7.2,9.4-.5,18.7.5,28,1.5,9.7,1.1,19.3,2.8,28.9,5,22.5,5.2,44.3,12.7,65.2,22.6,14.6,6.9,27.8,16.1,40.1,26.6,9.7,8.3,17.4,17.9,22.1,29.9,4.3,11,5.9,22.3,4.3,33.9-1.6,12.2-8.5,21-18,28.3-9.1,7-19.6,11.1-30.2,15-18,6.6-36.9,8.7-55.9,9.4-9.4.3-18.8.3-28.2-.3-7.6-.5-15.1-1.3-22.6-2.5-10.9-1.8-21.8-4.3-32.4-7.6-20.7-6.5-40.8-14.2-59.7-24.9-24.7-14-45.9-32.3-64.6-53.5-8.4-9.5-15.4-20-20.9-31.5-3.7-7.7-6.2-15.8-6.9-24.3-.5-6.9,0-13.9,1.6-20.8,2.9-12.4,8-23.7,16.5-33.2,11.5-12.8,26.2-20.7,42.4-26,12.8-4.2,26.2-6.3,39.6-7.9,9-1.1,18.1-1.5,27.2-2,8.6-.5,17.3.4,25.9.9,8.5.5,16.8,1.8,25.2,2.8,12.3,1.5,24.4,4,36.5,6.8,14.3,3.4,28.5,7.4,42.5,12.1,20.6,7,40.9,14.4,60,25,16.9,9.4,32,21.3,46.1,34.5,8.3,7.8,15.7,16.3,22.8,25.1,2.9,3.5,6,6.9,8.1,10.9,6.6,12.3,12,25,15,38.7,2.4,10.9,4.5,21.8,3,33-.5,4.1-.6,8.3-2.2,12.2-4.6,11.3-10.3,22-16.7,32.4-3.4,5.5-6.6,11.3-11.7,15.3-3.8,3-7.5,6.3-10.7,9.9-2.3,2.7-5,4.7-7.9,6.6-15.1,10.1-31.7,16.8-48.9,22.1-14,4.3-28,8.9-42.9,8.8-11.6,0-23.3.3-34.9-.4-11.8-.7-23.5-1.8-35.1-3.4-7.7-1.1-15.3-2.4-22.9-4.1-18.4-4-36.6-8.9-54.5-14.8-30.1-10-59.7-20.8-87.1-37.1-8.8-5.2-17.5-10.6-25.1-17.5-11.4-10.3-21.9-21.4-32-33-10.3-11.7-19.9-24-28.6-37-7.3-11-13.9-22.3-19.4-34.3-5.1-11.1-9.1-22.7-13.3-34.2-4.6-12.8-10.1-25.2-15.3-37.8-2-5-4.3-9.9-6.4-14.9-.4-1-.9-2.4-2.3-1.8-1,.5-.4,1.8-.4,2.7s.4.8.4,1.3c2.2,11.8,4.4,23.5,7.2,35.2.8,3.6,1.6,7.3,2.3,10.9-.6-.4-.9-1-1.2-1.5-5.5-11.8-11.1-23.6-16.6-35.5-.4-.9-.8-2.4-2.1-1.9-1.2.5-.6,1.8-.4,2.9,1.4,6.4,2.7,12.9,4.1,19.3,2.5,11.5,4.7,23.1,8.3,34.4,1.1,3.3,2.2,6.6,3.3,10-3.4-5.8-7-11.3-9.7-17.4-7.7-17.7-11.9-36.5-16.8-55-.5-2-1.9-3.2-2.5-5.5-1.2,4.3-.9,8.1-1,11.8,0,1.3.7,2.5.6,3.8-1,8.8-1.7,17.5-1.6,26.4,0,9.4.6,18.7,1.6,28,.9,8.4,2.2,16.7,3.9,24.9,5.1,24.3,14,47.2,26,69,14,25.3,32,47.5,51.8,68.3,8.3,8.7,17.4,16.3,26.9,23.7,15.5,11.9,31.6,22.8,48.4,32.7,3,1.7,5.9,3.4,8.9,5.2-19.5-5.8-37.6-14.8-56.8-22.7.6,2.2,2,2.7,3.1,3.6,14.3,10.7,28.4,21.7,43.9,30.6,12.2,7,24.4,13.7,37.5,18.9,24.3,9.6,49.2,16.7,75,21.1,12.1,2.1,24.2,3.9,36.4,4.2,18.3.4,36.7.8,55-1.4,9.2-1.1,18.4-2.3,27.5-4.1,18.4-3.5,36.5-8.7,54.3-14.6,5-1.6,9.7-3.9,14.9-4.8.2-.5.6-.5,1-.3-.2.2-.3.5-.5.7-2.7,2.2-5.3,4.5-8.1,6.5-21.7,16.1-44.7,29.4-71.8,34.4-8.9,1.6-17.7,3.2-26.7,4.2-7.3.9-14.7,1.5-22.1,1.9-3.7.2-7.4,0-11,.6-7.5,1-14.9.4-22.3-.4-4-.4-7.9-1.4-11.8-2.1-3.2-.6-6.4-.3-9.5-.8-3.4-.6-6.9-1.7-10.5-1.2.1,1.1,1,1.1,1.5,1.3,12.3,4.4,25,7.7,37.8,10.1,10.6,2,21.3,3.4,32.1,4.7,9.2,1.1,18.5,1.8,27.7,2.1,13.1.4,26-.7,39-2.1,7.6-.8,15.2-1.7,22.7-3,13.2-2.3,26.3-5.5,39.1-9.6,16.4-5.2,32.1-12.1,47.2-20.4,11.7-6.4,23.4-12.6,34.4-20.2,11.7-8,22-17.5,31.1-28.2,6.3-7.4,11.6-15.4,16-24,5.5-10.5,9.9-21.5,12.5-33.1,1.2-5.6,1.8-11.3,3.1-16.8,1.2-5.3,2-10.6,2.4-15.9.6-8.1-.5-16.1-1.7-24.1-1.5-9.4-4.2-18.6-7-27.7-7.2-22.8-17.1-44.3-30.4-64.2-.2-.4-.4-.8.1-1.2,1.6.7,2.2,2.4,3.3,3.6,9.3,9.7,17,20.5,24.1,31.9,9.2,14.9,18.2,30,24.3,46.6,6.3,17.1,9.9,34.7,9.6,53,0,4.1-.3,8.3-.9,12.3-.1.9,0,1.7.8,2.1.7.4,1.3-.2,1.8-.9,1-1.7,2.2-3.2,2.9-5.1,3.1-8.5,3.7-17.4,4.2-26.3.3-5.3.2-10.6-.3-16h0ZM430.1,248.8c1.3,0,2.5-.4,2.3,1.4-.2,1.4-.3,3-2,3-1.5,0-1.7-1.6-1.9-2.9-.2-1.5.8-1.6,1.6-1.5ZM427.4,240.5c.9,0,1.7.3,1.6,1.3,0,1.1-.7,2-1.8,2.1-1,0-1.3-1.1-1.4-2-.1-1,.6-1.4,1.6-1.4h0ZM132.2,143.4c-1.5,4.6-3.6,9-4.2,13.8-.7,5.5-1.4,10.9-1.1,16.5.4,6.3,2.6,12.4,2.3,18.8-2.4-4.7-3.7-9.6-4.8-14.7-1-4.3-1.2-8.6-1.2-13,0-8.5,3.2-15.6,8.6-21.9.2-.2.5-.3.7-.5.2.5.1.8-.4,1ZM232.9,206.9c1.4,4.2,3.3,8.2,6.7,12.3-3.6-1.6-6.5-7.4-6.7-12.3ZM239.7,220.5c-.1,0-.4-.2-.3-.3,0-.2,0-.6.4-.4.2.1.4.3.7.5-.4,0-.6.2-.8.2h0ZM243,208.4c-1.5-2-3.3-6.7-3.1-9,.1-1.9,1.4-3,3-4,2.5-1.5,5-3.1,8-3.3-4.1,4.7-7,10-7.9,16.2h0ZM251,192.1c-.1-.2,0-.3.2-.4,0,0,.2,0,.2,0-.1.1-.3.2-.4.4h0ZM207.5,177c-5.4,5.7-9.1,12.4-11.2,20.5-2-15.9,2.5-18.4,10.8-20.8.2-.5.5-.6,1-.4-.2.2-.4.5-.5.8h0ZM324.9,257.3c5-4.2,9.5-8.7,13.2-14.1,6.8-10.2,7.4-12.2,7.9-26.6,3.3,4.8,3.8,10.1,3.1,15.4-.5,4.3-1.1,8.9-4.1,12.4-5.3,6.1-11.8,10.8-19.6,13.3-.2.6-.6.6-1.1.4.2-.2.4-.5.6-.8h0ZM323.4,258.3c0,0,.1.1.2.2,0,0,0,.1-.1.2,0,0-.2-.1-.3-.2,0,0,.1-.2.2-.2h0ZM249.5,287.2c5.8,1.1,11.7,1.6,17.6,2.1,7.5.7,15.1.8,22.7.5,15.9-.8,31.4-3.3,45.6-11,9-4.9,15.4-12.3,20.4-21,2.4-4.2,5.2-8.3,6.3-13.6,1.3,3.1,1.2,6,1.5,8.9.7,5.8-2.1,10-5.4,14.3-8.1,10.5-19.9,14.8-31.8,18.7-10,3.2-20.3,4.6-30.8,5.3-8.1.5-16.1.2-24-.3-10.6-.8-21.2-1.6-31.4-4.9,3.1.4,6.2.7,9.3,1.2h0ZM159.5,129.4c-5.8,4-10.8,9-15.4,14.4-.2.2-.5.3-.7.5-.2-.5-.1-.8.4-1,4.1-8.1,10.8-13.9,18.2-18.8,7.6-5,16.1-7.8,25.2-8.9,2.7-.3,5.3-1.2,8.7-1-13.3,3.5-25.6,7.4-36.4,14.9h0ZM212.2,126.6c-1.5,0-2.2-1.6-2.2-3,0-1.2,1-1.3,2-1.3,1.3,0,1.9.5,1.8,2-.3.7-.4,2.3-1.6,2.3h0ZM222.5,116.5c-.7-.1-1.4-.8-1.5-1.7,0-.8.5-.8,1.1-.8.7,0,1.2.1,1.2,1s-.3,1.6-.8,1.6h0ZM334.4,136.1c1.1,0,2,.2,2.1,1.5,0,1.3-1,2.6-1.9,2.7-1.1,0-1.7-1.5-1.9-2.6-.2-1,.6-1.6,1.7-1.6h0ZM317.7,139.5c-1.2,0-1.8-1.3-1.8-2.4,0-1.5,1-1.5,2.1-1.5.9,0,1.6.3,1.7,1.3-.8.8-.4,2.7-2,2.6h0ZM319.5,154c24.3,7.4,47.3,17.3,65.9,35.3-20.2-15.2-42.8-25.6-65.9-35.3ZM386.5,190.9c-.1-.2-.3-.4-.3-.7,0,0,.2-.2.4-.3.2.2.3.4.5.6-.2.1-.4.3-.5.4ZM274.9,342.6c9.1.1,18.3.1,27.4-.6,22.9-1.9,45.6-5.3,67-14.4,15.6-6.6,30.6-14.6,44.1-25,3-2.3,5.8-4.8,8.8-7.2-.7,2.2-2.2,3.7-3.7,5.3-19.2,20.6-43.2,32.8-70,40.1-8,2.2-16.2,3.2-24.4,4.2-9.5,1.2-18.9,1.2-28.4.8-6.9-.3-13.7-1.1-20.5-2.6-1-.2-2,.3-3.3-.6h3,0ZM130.1,277.6c1,0,.9.6,1,1.2,0,.9-.5,1.2-1,1.6-.9-.4-1.2-.9-1.3-1.7,0-1.1.5-1.1,1.3-1.2h0ZM128.7,290.5c.6,0,1.2.4,1.2,1.2,0,.8-.4,1.1-.9,1.5-1,0-1-1-1.2-1.6-.2-.5.4-1.1.9-1.1h0ZM119.7,278.8c1.2,0,2.7,0,2.4,1.5-.2,1.4-.6,3.5-2.3,3.5-1.9,0-2.3-2.2-2.4-3.7-.2-1.6,1.4-1.2,2.4-1.3h0ZM46.5,204.3c-.2-.2-.4-.5-.7-.7-9.1-15-12.6-31-8.2-49,.4,5,.2,9.2.6,13.5,1,10.9,3.3,21.5,6.9,31.8.4,1.1.7,2.2,1,3.3.5.2.6.6.3,1.1h0ZM77.7,103.9c-1,0-1.3-1.1-1.2-1.9,0-.6.5-1.6,1.4-1.3.6.2,1.4.5,1.3,1.3-.4,1-.4,2-1.5,1.9h0ZM103.5,58.9c-17.6,8.3-32.8,19.9-45.8,34.4-14.1,15.8-24.6,33.8-30.4,54.3-.1.4-.1.7-.6.8,0,.5,0,1,0,1.7-.7-.8-.5-1.4-.2-1.9,2.1-16.2,7.5-31.1,16.2-44.9,6.1-9.7,13.8-17.7,22.7-24.8,11.8-9.4,25.2-15.9,39.5-20.7.4,1.2-.9,1-1.3,1.3h0ZM104.9,57.7c.4-.3.9-.5,1.9.2-1-.1-1.4.6-1.9-.2ZM152.9,64.5c-1.1-.6-2.3-1.1-2.4-2.5,0-1,.7-1.3,1.7-1.3,1.3,0,2,.8,2.1,2,0,.9-.8,1.3-1.4,1.8h0ZM161.4,59.4c-.8-.2-1.5-.9-1.5-1.9,0-1,.6-1.2,1.4-1.2,1,0,1.5.6,1.4,1.6-.1.8-.9,1.6-1.3,1.5h0ZM187.5,61.6c13.2-2.8,59,1.5,80.9,7.8-26.8-4.9-53.7-7.9-80.9-7.8h0ZM269.2,70c.7-.7,1.3-.3,2.2-.5-.9.8-1.4.5-2.2.5ZM384.3,95.5c0-.1.1-.3.2-.4.4-.1.6.1.7.5-.4.5-.6,0-.9-.1h0ZM394.9,101.9c-2.7-2-5.9-3.5-8.8-5.2-.3-.2-1-.3-.8-1,4.4,1.9,8.7,3.7,13.1,5.6-1,1.5-1.8,1.9-3.5.7h0ZM407.4,120.2c-.2,1.1-.4,2.4-1.7,2.5-1.6.2-1.9-1.4-2.1-2.4-.2-1.5,1-1.4,2.2-1.4.8,0,1.8-.2,1.6,1.3h0ZM413.5,136.2c-1.7-.1-1.8-1.5-2.1-2.5-.3-1.2.2-2,1.6-1.9,1,0,2.1.1,2.2,1.4.1,1.4-.4,2.5-1.7,3h0ZM417.2,124c-.8-.8-2.1-1.4-1.2-2.6.4-.6,1.9-.5,2.2,0,.6,1-.5,1.7-1.1,2.6h0ZM-32.7,207c-1.2,0-1.5-1.4-1.7-2.5-.1-1.1.4-1.5,1.5-1.3.8.1,2-.1,1.9,1.5-.5.7-.4,2.4-1.7,2.3h0ZM-28.5,220.4c-.8-.6-1.2-1.5-1.4-2.5-.1-.9.5-1.3,1.4-1.3,1,0,1.3.6,1.4,1.6,0,1.1-.7,1.6-1.4,2.2ZM-22.6,210.9c-1.5,0-1.9-1.8-2.2-3-.4-1.3,1-1.6,1.7-1.5.8.2,2.2-.2,2.6,1.2-.7,1.2-.5,3.3-2,3.3ZM-16.8,267.9c0-.3-.2-.5-.3-.8-.3-.3-.6-.6-.9-.9,0-.2,0-.6,0-.7.3-.2.3.2.4.4.3.3.5.6.8.9,0,.3.2.5.3.8.8.3,1.2.8,1.1,1.6-.9,0-1-.8-1.4-1.4h0ZM-14.4,271.3c-.5-.8-1.4-.9-1-2,.7.3,1.2.6,1,2ZM-12.2,274.2c-.4,0-.5-.4-.5-.7,0,0,.2-.2.4-.3.1.2.3.4.5.6-.1.1-.2.3-.3.3h0ZM-8.8,278.7c-.6,0-.6-.5-.8-.9-.6-.7-1.1-1.4-1.7-2.2-.1-.4-.2-.8-.4-1.2.2,0,.4,0,.4,0,.1.3.2.7.3,1,.9.5,1.7,1,1.6,2.2.5.1.8.4.7.9,0,0-.1.2-.2.2ZM-8,279.8c-.1-.2-.3-.5-.4-.7,0,0,.2-.2.4-.4.1.3.3.5.3.7,0,.1-.2.2-.3.4ZM10.2,300.8s0-.2,0-.2c.1.1.3.2.4.4h0c-.2.2-.4.1-.5-.1h0ZM10.8,301.8c-.1-.3-.6-.5-.2-.8.3,0,.5.2.6.5.6.3,1.2.7,1.3,1.7-1,0-1.3-.8-1.7-1.4h0ZM17.4,308.1c-.3.3-.6-.4-.9-.6-.2-.4-1.2-.5-.5-1.1.3-.3.8.2.9.7.4.3,1.1.6.5,1.1h0ZM112,352.6c1,0,2.1-.3,1.9,1.2-.1,1.2-.1,2.5-1.6,2.7-1.7.1-1.9-1.6-2.2-2.7-.3-1,.9-1.4,1.8-1.3h0ZM108.2,343.7c1.5-.1,1.9.7,1.8,1.8,0,1.5-.6,2.6-1.8,2.5-1.4,0-1.9-1.6-2.1-2.8-.2-1.4,1-1.5,2-1.5h0ZM101,354.2c.5.6,2.1.2,1.7,1.5-.2.8-.4,2.2-1.5,2.1-1.1,0-1.5-1.2-1.7-2.1-.2-1.1.7-1.3,1.5-1.6h0ZM314.1,428.1c-7.3.4-14.6.6-21.8,1.1-9.8.7-19.6.3-29.4.4-8,.1-15.8-1.9-23.7-3.2-11.5-2-22.7-4.7-34-7.7-17.5-4.7-34.6-10.4-51.3-17.5-22.4-9.4-43.8-20.5-63.9-34.3-8.4-5.8-16.7-11.8-25.1-17.5-7.4-5-14.2-10.8-21-16.6-8.3-7-16.3-14.4-24.1-22-.6-.6-1.6-1-1.6-2.8,2.9,2.6,5.5,4.8,8,7,9.3,8.2,19,16,28.9,23.6,6.3,4.8,12.2,10.3,18.6,15,11.5,8.6,23.5,16.4,36,23.3,10.9,6,22,11.4,33.4,16.4,22.6,10,45.7,18.4,69.9,24,9.3,2.1,18.6,4.1,28,5.4,6.2.8,12.6,1.3,18.8,1.9,12.8,1.2,25.6,1.1,38.4.9,8.4-.1,16.8-1,25.2-2,5.9-.7,11.8-1.6,17.8-2.1-9,2.5-17.6,6.1-27.1,6.5h0ZM365.9,394.1c-10.1,2.8-20.3,5.1-30.7,6.6-7.4,1.1-14.9,1.8-22.3,2.4-10.4.8-20.8,1.4-31.2.9-9.3-.4-18.7-1.1-28-2-16.7-1.6-33-5.2-49.1-9.6-6.7-1.9-13.5-3.4-19.7-6.5-.5,0-1.1.1-1.5-.4.6-.4,1.2-.4,1.7.1,8.7,2,17.3,4.3,26,5.9,7.4,1.4,14.8,2.8,22.2,3.7,6.9.9,13.9,2,20.8,2.7,5.5.6,11,.6,16.4,1.2,6.6.8,13.3.5,19.9.7,7.7.2,15.5,0,23.2-.6,5.3-.4,10.6-.7,15.9-1.3,6.5-.7,13-1.4,19.5-2.4,8.4-1.3,16.7-3,24.9-5.2,1-.3,2.2,0,4.1,0-4.3,2-8.2,2.8-12,3.8h0ZM388,404.6c-.2,1.3-.5,2.9-1.9,2.9s-2.1-2.1-2.4-3.4c-.3-1.6,1.2-1.4,2.4-1.5,1.4-.2,2.1.4,1.9,2h0ZM371.3,470.6c-1,0-1.1-.9-1.1-1.7,0-.7-.1-1.5,1-1.5.8,0,1.4.1,1.4,1,0,1-.2,2.1-1.3,2.1h0ZM379.5,463.2c-.3,1.1-.5,2.9-1.9,3-1.5,0-1.7-1.8-2-2.9-.2-1,.6-1.8,2.2-1.4.6.2,2.1-.2,1.7,1.3h0ZM434.6,121.2c-.7.2-1.1-.3-1.5-.8-.2-.2-.3-.5-.5-.8.5-.2.8-.1,1,.4.5,0,1.1,0,1.2.8,0,.1,0,.4-.2.4h0ZM465.7,343.2c.2-1.1.9-1.5,1.8-1.2.5.2,1.8.2,1.5,1.4-.7.8-.5,2.5-1.7,2.3-1.1-.1-1.7-1.2-1.6-2.5ZM459.4,358.7c1.2,0,2.5,0,2.3,1.4-.1,1-.4,2.6-2,2.5-1.3,0-1.6-1.4-1.8-2.4-.3-1.2.5-1.6,1.5-1.5h0ZM497.9,380.9c-2.3,5.4-5.9,10.1-9.3,14.9-5.4,7.6-11.5,14.7-18.3,21.1-13.3,12.6-27.4,24.3-43.9,32.7-1.4.7-2.9,1.2-4.6,1.5,2.6-2.1,5.2-4.3,8-6.3,4.7-3.5,9-7.5,13.4-11.3,4.9-4.3,10.4-7.8,15.2-12.1,7.2-6.4,14.4-12.7,20.9-19.7,6.3-6.8,12.2-13.9,18.1-21.1.5-.8.8-1.8,1.9-2.3-.2,1.2-.6,2.2-1.6,2.8h0ZM504.4,297.1c1.2,0,1.2,1,1.3,2,.3,2.3-1,4.5-.5,6.9,1.9-.2,3.1-2.2,5.6-2.3-1.1,1.2-1.9,2.1-2.9,3.2,2.7.3,5.2.7,7.7,1-3.4,1.1-6.9,1.6-10.7,1.5,1.7,2.6,3.2,4.8,4.7,7.1.5.2.6.5.4,1-.2-.2-.5-.3-.8-.5-1.5-1.6-3-3.3-4.8-5.2-1.5,3.4-1.3,6.7-3.3,9.5v-8.5c-1.4,1-2.3,1.8-3.4,2.4-.6.3-1.3,1.7-2.2.1-.7-1.2-.6-1.9.7-2.7,1.4-.8,2.5-1.9,4-3.1-2.4-.5-4.4.1-6.3-.7-.8-.3-1.4-.6-1.4-1.3s.8-1,1.6-1c1.5,0,3,0,4.6,0-.5-1.9-1.9-3-3.1-4.2-.5-.5-.8-1.2-.3-1.7.5-.5,1.2-.2,1.7.3,1,1.1,2.1,2.1,3.2,3.1.5.4.8,1.4,1.6,1,.7-.3.5-1.1.5-1.7.1-1.4.3-2.9.6-4.3.2-.8.2-1.9,1.5-1.9h0ZM494,287.1c.6.5,1.7.4,1.7,1.7,0,.9-.3,1.8-1.2,1.9-.9.1-1.5-.7-1.6-1.7,0-.9,0-1.6,1.1-1.9h0ZM502.4,205.4c0,0,.2-.2.3-.4.1.2.3.4.4.7-.2.1-.3.2-.4.3-.1-.2-.3-.4-.3-.6h0ZM435.3,121.2c37.8,23.3,69.9,52.6,93.8,90.4-28.1-33.4-60.4-62.5-93.8-90.4h0ZM529.5,213.4c-.4-.1-.6-.4-.5-.8,0-.4.2-.7.6-.4.2.2.4.6.4.9,0,.1-.1.6-.5.3h0ZM529.9,214c.2-.2.4-.3.6-.5,1,1.2,1.9,2.4,2.1,4.1-.9-1.2-1.8-2.4-2.6-3.6Z"/>
    </g>
  </g>
</svg>